<svg version="1.1" id="Layer_1" xmlns="http://www.w3.org/2000/svg" xmlns:xlink="http://www.w3.org/1999/xlink" x="0px" y="0px"
	 width="100%" viewBox="265 100 495 470" xml:space="preserve">
<!-- Heart outline - RED -->
<path fill="#EF4444" opacity="1.000000" stroke="none"
	d="
M545.666748,145.604126
	C566.006104,134.572235 587.480713,128.751511 610.159119,129.211777
	C672.220581,130.471344 721.763428,171.440125 734.803528,232.007751
	C741.270569,262.045288 737.043823,291.264465 726.285706,319.719513
	C710.086121,362.567322 683.691467,398.528259 651.928467,431.090149
	C610.601257,473.456787 565.301575,511.035706 517.205322,545.376465
	C514.420044,547.365112 512.361145,547.801086 509.270844,545.594543
	C456.516968,507.927460 406.842133,466.676239 362.691406,419.086914
	C333.020050,387.104645 309.312866,351.331268 296.183380,309.288177
	C286.287018,277.598175 284.799377,245.727295 296.630096,214.233856
	C312.186310,172.822968 340.912842,144.603500 384.045013,133.563950
	C426.986176,122.573288 466.108185,132.552765 500.785858,160.013824
	C504.814789,163.204315 508.584991,166.721512 512.845337,170.407486
	C522.949890,161.244064 533.228760,152.269958 545.666748,145.604126
M488.591858,174.927078
	C468.537872,158.884415 445.587097,150.279800 420.014435,149.476501
	C390.868378,148.560928 365.324493,158.019577 344.204987,178.383362
	C315.773315,205.797638 305.103668,239.556320 309.868805,278.296692
	C312.338104,298.371796 320.047882,316.868195 329.552032,334.592041
	C333.044647,341.105316 336.935516,347.405029 340.686462,353.874115
	C342.298492,352.688446 341.932953,351.609497 341.992554,350.676727
	C342.809692,337.887268 344.195526,325.182678 346.664642,312.582031
	C349.709930,297.041016 353.114105,281.628906 359.449646,267.023621
	C362.014008,261.111969 365.838776,256.443665 372.295502,254.645248
	C382.557465,251.786972 392.434998,258.781921 395.104034,270.849976
	C396.398315,276.701996 397.106934,282.650269 397.161530,288.666443
	C397.271790,300.820648 397.321991,312.965210 399.071747,325.054626
	C399.523224,328.173981 400.784546,329.783691 403.437347,330.970978
	C408.529846,333.250061 412.994537,336.517883 416.507812,340.828461
	C432.680237,360.670837 452.143707,376.539490 473.706055,390.252258
	C491.194092,401.373962 504.894104,416.243408 512.350281,436.102173
	C512.472778,436.428436 512.990906,436.606110 513.507385,436.988647
	C515.811523,431.748657 518.034851,426.745636 520.873230,422.023529
	C529.506470,407.660522 541.806396,396.994019 555.664185,388.134552
	C574.471863,376.110504 591.721069,362.452087 605.734741,344.896057
	C610.647888,338.740967 616.616760,333.584991 623.901367,330.299286
	C626.452576,329.148560 627.262634,327.128876 627.516602,324.785187
	C628.036194,319.991058 628.477966,315.178741 628.683655,310.362457
	C629.117126,300.212372 629.253479,290.048462 629.778442,279.904053
	C629.957214,276.449463 630.667480,272.961517 631.599548,269.618378
	C634.261169,260.071564 640.654053,254.429535 648.894348,253.995422
	C656.483521,253.595627 663.015503,258.442963 666.818054,267.514008
	C675.254761,287.639557 679.394714,308.848724 682.284668,330.333618
	C683.348816,338.244598 683.826660,346.234406 684.648376,355.004181
	C693.327271,341.459351 700.361206,328.067566 706.362732,314.126068
	C716.679993,290.159149 720.654968,265.501770 715.748108,239.504959
	C702.934875,171.620056 634.210083,132.654800 569.478394,156.903564
	C550.730286,163.926682 534.674255,174.922012 521.568298,190.153198
	C515.463562,197.247818 510.725677,197.141800 504.800690,190.047287
	C500.183411,184.518600 494.707794,179.893234 488.591858,174.927078
z"/>
<!-- Left hand - DARK BLUE -->
<path fill="#1B365D" opacity="1.000000" stroke="none"
	d="
M388.882721,346.310974
	C387.743347,351.512939 390.796143,355.251373 393.589661,358.894440
	C404.836884,373.561981 416.279724,388.079376 427.546112,402.732361
	C430.949402,407.158722 431.026306,411.447021 428.199554,413.988708
	C425.364349,416.538025 420.579803,415.509644 416.734192,411.510162
	C416.157593,410.910492 415.621582,410.270721 415.082947,409.635742
	C407.972717,401.254059 400.634003,393.052704 393.823395,384.434082
	C387.233673,376.094879 379.781616,368.322327 375.151215,358.571381
	C370.763824,349.332184 371.936401,337.857147 378.807617,332.794830
	C383.403381,329.408905 384.321045,325.988373 383.070465,320.984100
	C382.555847,318.924927 382.793701,316.678406 382.683197,314.517426
	C382.054352,302.219757 381.451416,289.920654 380.774689,277.625610
	C380.600464,274.459656 380.135742,271.337372 376.552795,269.737366
	C373.523407,272.376343 372.756622,276.051575 371.707886,279.463135
	C366.661987,295.877869 363.164276,312.651550 361.454590,329.724304
	C359.423340,350.008423 360.018616,370.010468 370.536621,388.413086
	C377.843201,401.196899 386.621063,412.899292 396.620239,423.682526
	C425.392334,454.710907 458.152252,481.149261 491.982178,506.345551
	C493.101318,507.179077 494.096832,508.584229 496.166870,507.937225
	C496.306335,507.270386 496.608582,506.495270 496.610077,505.719574
	C496.641479,489.563324 497.175201,473.383636 496.472534,457.258148
	C495.914246,444.445618 491.762878,432.491394 483.735352,422.116516
	C477.248535,413.732941 469.490723,406.665619 460.983398,400.508057
	C442.316284,386.996857 424.480927,372.602875 409.196625,355.226440
	C405.561737,351.093994 401.225220,347.638824 396.134521,345.334106
	C393.840729,344.295685 391.443085,343.279724 388.882721,346.310974
z"/>
<!-- Right hand - DARK BLUE -->
<path fill="#1B365D" opacity="1.000000" stroke="none"
	d="
M578.941467,471.432159
	C585.343689,465.848053 591.846069,460.373993 598.129333,454.659058
	C616.388428,438.051544 634.004761,420.848480 648.185120,400.453308
	C659.937988,383.549500 666.631042,365.130096 665.709534,344.292450
	C664.674194,320.880920 660.727173,297.999115 653.227112,275.773407
	C652.458130,273.494751 651.985413,270.867462 649.201843,269.559082
	C645.764771,271.667328 645.467224,275.163116 645.273010,278.632263
	C644.380005,294.583221 644.564087,310.595917 642.604065,326.482544
	C642.322388,328.766266 643.339661,329.818207 645.051514,330.832397
	C650.949951,334.326996 652.989868,339.874908 653.362183,346.395569
	C653.862793,355.163727 649.895569,362.247467 644.807922,368.753052
	C637.317749,378.330597 629.569153,387.709625 621.791626,397.057648
	C617.214661,402.558807 612.517090,407.977539 607.584656,413.158020
	C604.919739,415.956909 601.311096,416.678589 598.147156,413.949738
	C595.050171,411.278778 595.123901,407.853119 597.286072,404.474792
	C597.734375,403.774384 598.238403,403.106903 598.749512,402.449768
	C607.954895,390.614136 617.187256,378.799347 626.363403,366.941071
	C629.721313,362.601685 633.687195,358.687012 636.073242,353.654297
	C637.346497,350.968567 639.199402,347.835815 636.667725,345.305023
	C634.078979,342.717316 631.038330,344.690216 628.418457,346.133209
	C623.100647,349.062286 618.540161,353.077301 614.622070,357.570007
	C602.166077,371.852631 587.950317,384.088226 572.603638,395.105103
	C563.390015,401.719208 554.384827,408.620758 546.774597,417.097321
	C538.600891,426.201538 533.023682,436.613525 531.066345,448.880463
	C527.967834,468.299255 529.765869,487.736389 530.522522,507.174896
	C530.531311,507.401093 530.960144,507.610901 531.580139,508.190063
	C547.635254,496.763428 563.101196,484.438202 578.941467,471.432159
z"/>
<!-- Circle around cross - DARK BLUE -->
<path fill="#1B365D" opacity="1.000000" stroke="none"
	d="
M477.655579,209.500580
	C518.409729,195.822006 554.888123,202.868011 584.659546,233.323532
	C628.764221,278.441650 614.778625,351.055908 557.871582,378.407227
	C511.543549,400.673981 458.278687,384.661926 432.388977,347.716217
	C407.530884,312.242676 411.356781,263.995361 441.667511,233.053787
	C451.784241,222.726486 463.624481,214.717102 477.655579,209.500580
M442.178772,325.352661
	C458.693329,358.807007 493.271149,376.151581 529.805298,368.538940
	C569.620789,360.242584 599.452576,322.194458 590.221802,276.465973
	C583.034363,240.860046 552.774658,216.430939 516.100342,214.985733
	C457.812897,212.688858 417.741302,271.897949 442.178772,325.352661
z"/>
<!-- Cross - RED -->
<path fill="#EF4444" opacity="1.000000" stroke="none"
	d="
M561.447510,276.797791
	C565.759583,277.853516 567.151672,280.672333 567.171448,284.336853
	C567.211853,291.835358 567.292969,299.338013 567.093689,306.831940
	C566.959229,311.889343 564.675476,314.097229 559.589966,314.212524
	C552.427429,314.374969 545.248169,314.504669 538.096436,314.187622
	C533.375793,313.978333 531.892090,315.953247 532.019043,320.335052
	C532.202454,326.662750 532.192749,333.001465 532.062378,339.331268
	C531.939697,345.289764 529.863770,347.576416 523.914551,347.768463
	C516.591858,348.004913 509.245483,347.996216 501.926147,347.690979
	C496.286133,347.455811 494.183258,345.135193 494.023682,339.478271
	C493.840485,332.983795 493.796326,326.475647 494.003296,319.983337
	C494.138336,315.747314 492.750092,313.968506 488.259338,314.172089
	C481.274231,314.488770 474.263672,314.313293 467.264984,314.242249
	C460.968414,314.178314 458.788544,312.039978 458.726471,305.872955
	C458.654327,298.707520 458.641846,291.540192 458.721954,284.375031
	C458.782227,278.982300 460.894073,276.839691 466.338501,276.757233
	C474.002960,276.641113 481.672607,276.592651 489.335144,276.751495
	C492.854431,276.824432 494.058319,275.373840 493.994904,272.008209
	C493.859955,264.844543 493.850403,257.675781 493.951019,250.511353
	C494.034363,244.574036 495.912201,242.741409 501.794128,242.679916
	C509.292816,242.601532 516.793091,242.585007 524.291931,242.642899
	C529.778870,242.685257 531.898376,244.626953 532.052612,250.124298
	C532.239624,256.785095 532.079529,263.455109 532.112915,270.120911
	C532.144409,276.407379 532.405945,276.667969 538.507507,276.696869
	C546.006653,276.732422 553.505920,276.735596 561.447510,276.797791
z"/>
</svg>
